<?xml version="1.0"?>
<svg xmlns="http://www.w3.org/2000/svg" height="512px" viewBox="0 0 512 512" width="512px" class=""><g><path d="m462.5 0c-27.292969 0-49.5 22.207031-49.5 49.5v10.5h-38.667969v-10.5c0-27.292969-22.203125-49.5-49.5-49.5-27.292969 0-49.5 22.207031-49.5 49.5v10.5h-38.664062v-10.5c0-27.292969-22.207031-49.5-49.5-49.5-27.296875 0-49.5 22.207031-49.5 49.5v10.5h-38.667969v-10.5c0-27.292969-22.207031-49.5-49.5-49.5s-49.5 22.207031-49.5 49.5v462.5h99v-60h38.667969v60h99v-60h38.664062v60h99v-60h38.667969v60h99v-462.5c0-27.292969-22.207031-49.5-49.5-49.5zm-49.5 90v39h-38.667969v-39zm0 69v194h-38.667969v-194zm-137.667969-69v39h-38.664062v-39zm0 69v194h-38.664062v-194zm-137.664062-69v39h-38.667969v-39zm0 69v194h-38.667969v-194zm-68.667969 323h-39v-432.5c0-10.753906 8.746094-19.5 19.5-19.5s19.5 8.746094 19.5 19.5zm30-60v-39h38.667969v39zm107.667969 60h-39v-432.5c0-10.753906 8.746093-19.5 19.5-19.5 10.75 0 19.5 8.746094 19.5 19.5zm30-60v-39h38.664062v39zm107.664062 60h-39v-432.5c0-10.753906 8.75-19.5 19.5-19.5 10.753907 0 19.5 8.746094 19.5 19.5zm30-60v-39h38.667969v39zm107.667969 60h-39v-432.5c0-10.753906 8.746094-19.5 19.5-19.5s19.5 8.746094 19.5 19.5zm0 0" data-original="#000000" class="active-path" fill="#17479e"/></g> </svg>
