<?xml version="1.0"?>
<svg xmlns="http://www.w3.org/2000/svg" height="512px" viewBox="0 0 512.00031 512" width="512px" class=""><g><path d="m406 211h-135v120h185.804688l-36.582032-109.746094c-2.035156-6.125-7.761718-10.253906-14.222656-10.253906zm0 0" data-original="#000000" class="active-path" fill="#17479e"/><path d="m91.777344 221.253906-36.582032 109.746094h185.804688v-120h-135c-6.460938 0-12.1875 4.128906-14.222656 10.253906zm0 0" data-original="#000000" class="active-path" fill="#17479e"/><path d="m466.804688 361h-195.804688v151h226c4.816406 0 9.34375-2.316406 12.171875-6.226562 2.8125-3.914063 3.589844-8.953126 2.050781-13.523438zm0 0" data-original="#000000" class="active-path" fill="#17479e"/><path d="m.777344 492.253906c-1.539063 4.566406-.761719 9.605469 2.050781 13.519532 2.828125 3.910156 7.355469 6.226562 12.171875 6.226562h226v-151h-195.804688zm0 0" data-original="#000000" class="active-path" fill="#17479e"/><path d="m226 91c-24.8125 0-45-20.1875-45-45 0-8.289062-6.707031-15-15-15-8.289062 0-15 6.710938-15 15 0 24.8125-20.183594 45-45 45-8.289062 0-15 6.707031-15 15 0 8.289062 6.710938 15 15 15 24.816406 0 45 20.1875 45 45 0 8.289062 6.710938 15 15 15 8.292969 0 15-6.710938 15-15 0-24.8125 20.1875-45 45-45 8.292969 0 15-6.710938 15-15 0-8.292969-6.707031-15-15-15zm0 0" data-original="#000000" class="active-path" fill="#17479e"/><path d="m406 61c-24.8125 0-45-21.1875-45-46 0-8.289062-6.710938-15-15-15-8.292969 0-15 6.710938-15 15 0 24.8125-20.1875 46-45 46-8.289062 0-15 6.707031-15 15 0 8.289062 6.710938 15 15 15 24.8125 0 45 20.1875 45 45 0 8.289062 6.707031 15 15 15 8.289062 0 15-6.710938 15-15 0-24.8125 20.1875-45 45-45 8.289062 0 15-6.710938 15-15 0-8.292969-6.710938-15-15-15zm0 0" data-original="#000000" class="active-path" fill="#17479e"/></g> </svg>
