<?xml version="1.0"?>
<svg xmlns="http://www.w3.org/2000/svg" height="512px" viewBox="-56 0 480 480" width="512px"><g><path d="m344 0h-320c-13.253906 0-24 10.746094-24 24v432c0 13.253906 10.746094 24 24 24h320c13.253906 0 24-10.746094 24-24v-432c0-13.253906-10.746094-24-24-24zm8 456c0 4.417969-3.582031 8-8 8h-320c-4.417969 0-8-3.582031-8-8v-432c0-4.417969 3.582031-8 8-8h320c4.417969 0 8 3.582031 8 8zm0 0" data-original="#000000" class="active-path" data-old_color="#17479e" fill="#17479e"/><path d="m328 32h-288c-4.417969 0-8 3.582031-8 8v400c0 4.417969 3.582031 8 8 8h288c4.417969 0 8-3.582031 8-8v-400c0-4.417969-3.582031-8-8-8zm-8 400h-272v-384h272zm0 0" data-original="#000000" class="active-path" data-old_color="#17479e" fill="#17479e"/><path d="m71.710938 138.632812c2.121093 0 4.15625-.84375 5.65625-2.34375l56.578124-56.578124c2.078126-2.007813 2.914063-4.980469 2.179688-7.777344-.730469-2.796875-2.914062-4.984375-5.714844-5.714844-2.796875-.734375-5.769531.101562-7.777344 2.179688l-56.578124 56.578124c-2.285157 2.289063-2.96875 5.726563-1.730469 8.714844 1.234375 2.992188 4.152343 4.941406 7.386719 4.941406zm0 0" data-original="#000000" class="active-path" data-old_color="#17479e" fill="#17479e"/><path d="m234.054688 416.289062c3.125 3.121094 8.1875 3.121094 11.3125 0l56.578124-56.578124c3.03125-3.136719 2.988282-8.128907-.097656-11.214844-3.085937-3.085938-8.078125-3.128906-11.214844-.097656l-56.578124 56.578124c-3.121094 3.125-3.121094 8.1875 0 11.3125zm0 0" data-original="#000000" class="active-path" data-old_color="#17479e" fill="#17479e"/><path d="m98.34375 325.65625c3.125 3.121094 8.1875 3.121094 11.3125 0l160-160c3.03125-3.140625 2.988281-8.128906-.097656-11.214844-3.085938-3.085937-8.074219-3.128906-11.214844-.097656l-160 160c-3.121094 3.125-3.121094 8.1875 0 11.3125zm0 0" data-original="#000000" class="active-path" data-old_color="#17479e" fill="#17479e"/></g> </svg>
