<?xml version="1.0"?>
<svg xmlns="http://www.w3.org/2000/svg" xmlns:xlink="http://www.w3.org/1999/xlink" version="1.1" id="Capa_1" x="0px" y="0px" width="512px" height="512px" viewBox="0 0 476.195 476.195" style="enable-background:new 0 0 476.195 476.195;" xml:space="preserve" class=""><g><g>
	<g>
		<polygon points="1.66,0 1.66,476.195 43.188,476.195 43.188,41.528 433.006,41.528 433.006,476.195 474.535,476.195 474.535,0       " data-original="#000000" class="" fill="#17479e"/>
		<polygon points="57.453,188.961 89.384,53.915 57.453,53.915   " data-original="#000000" class="" fill="#17479e"/>
		<polygon points="57.453,395.26 139.083,53.915 124.467,53.915 57.453,334.583   " data-original="#000000" class="" fill="#17479e"/>
		<polygon points="418.742,476.195 418.742,298.282 375.879,476.195   " data-original="#000000" class="" fill="#17479e"/>
		<polygon points="358.338,476.195 418.742,225.467 418.742,164.79 343.721,476.195   " data-original="#000000" class="" fill="#17479e"/>
		<path d="M57.453,468.074v8.121h175.454V53.915h-76.281L57.453,468.074z M197.261,232.128c9.029,0,16.352,7.321,16.352,16.352    s-7.322,16.352-16.352,16.352c-9.031,0-16.352-7.32-16.352-16.352S188.23,232.128,197.261,232.128z" data-original="#000000" class="" fill="#17479e"/>
		<path d="M243.288,53.915v422.28h65.351L409.77,53.915H243.288z M278.934,264.831c-9.031,0-16.353-7.321-16.353-16.353    c0-9.03,7.32-16.352,16.353-16.352c9.029,0,16.352,7.321,16.352,16.352C295.285,257.51,287.963,264.831,278.934,264.831z" data-original="#000000" class="" fill="#17479e"/>
	</g>
</g></g> </svg>
