<?xml version="1.0"?>
<svg xmlns="http://www.w3.org/2000/svg" height="512px" viewBox="-79 0 480 480.00033" width="512px" class=""><g><path d="m266.914062 0h-96c-24.78125-.0859375-46.628906 16.222656-53.601562 40h-10.398438c-39.746093.042969-71.957031 32.253906-72 72v25.472656c-11.011718 3.878906-17.621093 15.132813-15.644531 26.640625 1.980469 11.507813 11.96875 19.910157 23.644531 19.886719h160c11.675782.023438 21.664063-8.378906 23.640626-19.886719 1.980468-11.507812-4.628907-22.761719-15.640626-26.640625v-25.472656c-.042968-39.746094-32.253906-71.957031-72-72h-4.511718c6.269531-14.585938 20.632812-24.027344 36.511718-24h96c22.078126.027344 39.972657 17.917969 40 40v416c0 4.417969 3.582032 8 8 8 4.417969 0 8-3.582031 8-8v-416c-.035156-30.914062-25.085937-55.9648438-56-56zm-64 168h-160c-4.417968 0-8-3.582031-8-8s3.582032-8 8-8h160c4.417969 0 8 3.582031 8 8s-3.582031 8-8 8zm-8-56v24h-144v-24c.035157-30.914062 25.085938-55.964844 56-56h32c30.914063.035156 55.964844 25.085938 56 56zm0 0" data-original="#000000" class="active-path" data-old_color="#17479e" fill="#17479e"/><path d="m98.914062 200c-4.417968 0-8 3.582031-8 8v16c0 4.417969 3.582032 8 8 8 4.417969 0 8-3.582031 8-8v-16c0-4.417969-3.582031-8-8-8zm0 0" data-original="#000000" class="active-path" data-old_color="#17479e" fill="#17479e"/><path d="m98.914062 248c-4.417968 0-8 3.582031-8 8v16c0 4.417969 3.582032 8 8 8 4.417969 0 8-3.582031 8-8v-16c0-4.417969-3.582031-8-8-8zm0 0" data-original="#000000" class="active-path" data-old_color="#17479e" fill="#17479e"/><path d="m98.914062 296c-4.417968 0-8 3.582031-8 8v16c0 4.417969 3.582032 8 8 8 4.417969 0 8-3.582031 8-8v-16c0-4.417969-3.582031-8-8-8zm0 0" data-original="#000000" class="active-path" data-old_color="#17479e" fill="#17479e"/><path d="m98.914062 344c-4.417968 0-8 3.582031-8 8v16c0 4.417969 3.582032 8 8 8 4.417969 0 8-3.582031 8-8v-16c0-4.417969-3.582031-8-8-8zm0 0" data-original="#000000" class="active-path" data-old_color="#17479e" fill="#17479e"/><path d="m98.914062 392c-4.417968 0-8 3.582031-8 8v16c0 4.417969 3.582032 8 8 8 4.417969 0 8-3.582031 8-8v-16c0-4.417969-3.582031-8-8-8zm0 0" data-original="#000000" class="active-path" data-old_color="#17479e" fill="#17479e"/><path d="m195.867188 224.929688-4.152344-15.457032c-1.144532-4.269531-5.535156-6.800781-9.800782-5.65625-4.269531 1.144532-6.800781 5.53125-5.65625 9.800782l4.136719 15.457031c.9375 3.492187 4.101563 5.921875 7.71875 5.925781.703125 0 1.402344-.089844 2.078125-.273438 2.054688-.542968 3.804688-1.882812 4.871094-3.722656 1.0625-1.835937 1.351562-4.023437.804688-6.074218zm0 0" data-original="#000000" class="active-path" data-old_color="#17479e" fill="#17479e"/><path d="m208.289062 271.296875-4.144531-15.464844c-.675781-2.828125-2.835937-5.066406-5.640625-5.84375-2.804687-.777343-5.808594.027344-7.847656 2.101563-2.039062 2.078125-2.789062 5.097656-1.957031 7.886718l4.132812 15.457032c.933594 3.496094 4.101563 5.929687 7.722657 5.933594.703124.003906 1.402343-.09375 2.078124-.277344 4.265626-1.144532 6.796876-5.527344 5.65625-9.792969zm0 0" data-original="#000000" class="active-path" data-old_color="#17479e" fill="#17479e"/><path d="m220.714844 317.65625-4.144532-15.457031c-1.144531-4.265625-5.53125-6.800781-9.800781-5.65625s-6.800781 5.535156-5.65625 9.800781l4.144531 15.457031c.9375 3.492188 4.101563 5.925781 7.71875 5.925781.703126 0 1.402344-.089843 2.082032-.269531 4.265625-1.144531 6.800781-5.53125 5.65625-9.800781zm0 0" data-original="#000000" class="active-path" data-old_color="#17479e" fill="#17479e"/><path d="m233.128906 364-4.136718-15.457031c-1.15625-4.246094-5.53125-6.761719-9.785157-5.621094-4.253906 1.136719-6.789062 5.5-5.667969 9.757813l4.140626 15.464843c.9375 3.492188 4.105468 5.925781 7.722656 5.929688.699218-.003907 1.394531-.09375 2.070312-.273438 4.269532-1.144531 6.800782-5.53125 5.65625-9.800781zm0 0" data-original="#000000" class="active-path" data-old_color="#17479e" fill="#17479e"/><path d="m241.410156 394.929688c-.679687-2.832032-2.839844-5.070313-5.644531-5.847657-2.800781-.777343-5.808594.027344-7.84375 2.105469-2.039063 2.078125-2.789063 5.097656-1.960937 7.886719l4.136718 15.453125c.933594 3.5 4.101563 5.933594 7.71875 5.9375.703125-.003906 1.402344-.097656 2.082032-.28125 4.257812-1.144532 6.789062-5.519532 5.65625-9.785156zm0 0" data-original="#000000" class="active-path" data-old_color="#17479e" fill="#17479e"/><path d="m63.898438 203.816406c-4.269532-1.144531-8.65625 1.386719-9.800782 5.65625l-4.136718 15.457032c-1.144532 4.265624 1.386718 8.65625 5.65625 9.796874.679687.183594 1.378906.273438 2.082031.273438 3.613281-.007812 6.773437-2.4375 7.710937-5.925781l4.144532-15.472657c1.132812-4.265624-1.398438-8.640624-5.65625-9.785156zm0 0" data-original="#000000" class="active-path" data-old_color="#17479e" fill="#17479e"/><path d="m51.472656 250.175781c-4.265625-1.140625-8.648437 1.390625-9.792968 5.65625l-4.140626 15.464844c-1.140624 4.265625 1.390626 8.648437 5.652344 9.792969.679688.183594 1.378906.28125 2.082032.277344 3.621093-.003907 6.785156-2.4375 7.71875-5.933594l4.136718-15.457032c1.144532-4.269531-1.386718-8.65625-5.65625-9.800781zm0 0" data-original="#000000" class="active-path" data-old_color="#17479e" fill="#17479e"/><path d="m39.058594 296.542969c-4.269532-1.144531-8.65625 1.390625-9.800782 5.65625l-4.144531 15.457031c-1.144531 4.269531 1.386719 8.65625 5.65625 9.800781.679688.179688 1.378907.269531 2.078125.269531 3.621094 0 6.785156-2.433593 7.722656-5.925781l4.144532-15.457031c1.144531-4.265625-1.390625-8.65625-5.65625-9.800781zm0 0" data-original="#000000" class="active-path" data-old_color="#17479e" fill="#17479e"/><path d="m26.632812 342.914062c-4.269531-1.148437-8.65625 1.386719-9.800781 5.652344l-4.132812 15.433594c-1.148438 4.269531 1.386719 8.65625 5.652343 9.800781.679688.179688 1.375.269531 2.074219.273438 3.617188-.003907 6.78125-2.4375 7.71875-5.929688l4.144531-15.464843c1.125-4.257813-1.402343-8.625-5.65625-9.765626zm0 0" data-original="#000000" class="active-path" data-old_color="#17479e" fill="#17479e"/><path d="m14.210938 389.273438c-4.269532-1.144532-8.65625 1.386718-9.800782 5.65625l-4.136718 15.46875c-1.144532 4.269531 1.386718 8.65625 5.65625 9.800781.679687.183593 1.378906.277343 2.078124.28125 3.621094-.003907 6.789063-2.4375 7.722657-5.9375l4.136719-15.453125c.554687-2.054688.269531-4.242188-.792969-6.082032-1.0625-1.84375-2.8125-3.1875-4.863281-3.734374zm0 0" data-original="#000000" class="active-path" data-old_color="#17479e" fill="#17479e"/><path d="m146.914062 200c-4.417968 0-8 3.582031-8 8v16c0 4.417969 3.582032 8 8 8 4.417969 0 8-3.582031 8-8v-16c0-4.417969-3.582031-8-8-8zm0 0" data-original="#000000" class="active-path" data-old_color="#17479e" fill="#17479e"/><path d="m146.914062 248c-4.417968 0-8 3.582031-8 8v16c0 4.417969 3.582032 8 8 8 4.417969 0 8-3.582031 8-8v-16c0-4.417969-3.582031-8-8-8zm0 0" data-original="#000000" class="active-path" data-old_color="#17479e" fill="#17479e"/><path d="m146.914062 296c-4.417968 0-8 3.582031-8 8v16c0 4.417969 3.582032 8 8 8 4.417969 0 8-3.582031 8-8v-16c0-4.417969-3.582031-8-8-8zm0 0" data-original="#000000" class="active-path" data-old_color="#17479e" fill="#17479e"/><path d="m146.914062 344c-4.417968 0-8 3.582031-8 8v16c0 4.417969 3.582032 8 8 8 4.417969 0 8-3.582031 8-8v-16c0-4.417969-3.582031-8-8-8zm0 0" data-original="#000000" class="active-path" data-old_color="#17479e" fill="#17479e"/><path d="m146.914062 392c-4.417968 0-8 3.582031-8 8v16c0 4.417969 3.582032 8 8 8 4.417969 0 8-3.582031 8-8v-16c0-4.417969-3.582031-8-8-8zm0 0" data-original="#000000" class="active-path" data-old_color="#17479e" fill="#17479e"/></g> </svg>
