<?xml version="1.0"?>
<svg xmlns="http://www.w3.org/2000/svg" height="512px" viewBox="0 0 480 480" width="512px"><g><path d="m480 120c0-67.289062-105.425781-120-240-120s-240 52.710938-240 120c0 34.648438 28 65.40625 73.503906 87.121094l-36.625 251.078125c-.578125 4.011719 1.929688 7.820312 5.84375 8.871093 3.914063 1.050782 7.996094-.988281 9.5-4.75l92.320313-231.871093c12.746093 2.695312 26.105469 4.796875 39.9375 6.398437l15.574219 132.074219c.480468 4.023437 3.890624 7.054687 7.945312 7.054687s7.464844-3.03125 7.945312-7.054687l15.144532-129.042969c1.847656.03125 3.714844.058594 5.597656.074219l27.410156 232.976563c.476563 4.023437 3.890625 7.054687 7.941406 7.054687 4.054688 0 7.464844-3.03125 7.945313-7.054687l28-237.664063c12.070313-1.722656 23.726563-3.882813 34.886719-6.464844l92.90625 233.519531c1.503906 3.761719 5.585937 5.800782 9.5 4.75 3.914062-1.050781 6.421875-4.859374 5.84375-8.871093l-37.144532-254.808594c41.0625-21.4375 66.023438-50.679687 66.023438-83.390625zm-417.472656 273.175781 26.167968-179.390625c13.070313 5.191406 26.46875 9.523438 40.105469 12.96875zm145.472656-93.648437-7.199219-61.078125c4.710938.375 9.457031.703125 14.261719.933593zm64 104-19.257812-163.6875c13.296874-.335938 26.25-1.207032 38.832031-2.535156zm153.480469-10.398438-67.03125-168.328125c13.785156-3.789062 27.292969-8.539062 40.414062-14.214843zm-185.480469-169.128906c-121.425781 0-224-47.625-224-104s102.574219-104 224-104 224 47.625 224 104-102.574219 104-224 104zm0 0" data-original="#000000" class="active-path" fill="#17479e"/></g> </svg>
